<?xml version="1.0" standalone="no"?>
<!DOCTYPE svg PUBLIC "-//W3C//DTD SVG 20010904//EN"
 "http://www.w3.org/TR/2001/REC-SVG-20010904/DTD/svg10.dtd">
<svg version="1.0" xmlns="http://www.w3.org/2000/svg"
 width="512.000000pt" height="512.000000pt" viewBox="0 0 512.000000 512.000000"
 preserveAspectRatio="xMidYMid meet">
<metadata>
Created by potrace 1.11, written by Peter Selinger 2001-2013
</metadata>
<g transform="translate(0.000000,512.000000) scale(0.100000,-0.100000)"
fill="#000000" stroke="none">
<path d="M430 5105 c-182 -37 -300 -122 -368 -266 -65 -136 -62 -31 -61 -2278
0 -1127 4 -2063 9 -2096 36 -242 156 -381 380 -442 61 -17 189 -18 2170 -18
1981 0 2109 1 2169 18 216 59 336 190 378 412 5 22 8 985 8 2140 l0 2100 -23
73 c-59 188 -166 293 -357 349 -56 17 -186 18 -2150 20 -1705 1 -2102 -1
-2155 -12z"/>
</g>
</svg>
